<svg xmlns="http://www.w3.org/2000/svg" viewBox="0 0 60 40"><circle cx="5" cy="5" r="4.0" fill="#ff0000"/><circle cx="5" cy="5" r="3.4285714285714284" fill="#ff7f00"/><circle cx="5" cy="5" r="2.857142857142857" fill="#ffff00"/><circle cx="5" cy="5" r="2.2857142857142856" fill="#00ff00"/><circle cx="5" cy="5" r="1.7142857142857142" fill="#00ffff"/><circle cx="5" cy="5" r="1.1428571428571428" fill="#0000ff"/><circle cx="5" cy="5" r="0.5714285714285714" fill="#8b00ff"/><circle cx="5" cy="15" r="4.0" fill="#ff0000"/><circle cx="5" cy="15" r="3.4285714285714284" fill="#ff7f00"/><circle cx="5" cy="15" r="2.857142857142857" fill="#ffff00"/><circle cx="5" cy="15" r="2.2857142857142856" fill="#00ff00"/><circle cx="5" cy="15" r="1.7142857142857142" fill="#00ffff"/><circle cx="5" cy="15" r="1.1428571428571428" fill="#0000ff"/><circle cx="5" cy="15" r="0.5714285714285714" fill="#8b00ff"/><circle cx="5" cy="25" r="4.0" fill="#ff0000"/><circle cx="5" cy="25" r="3.4285714285714284" fill="#ff7f00"/><circle cx="5" cy="25" r="2.857142857142857" fill="#ffff00"/><circle cx="5" cy="25" r="2.2857142857142856" fill="#00ff00"/><circle cx="5" cy="25" r="1.7142857142857142" fill="#00ffff"/><circle cx="5" cy="25" r="1.1428571428571428" fill="#0000ff"/><circle cx="5" cy="25" r="0.5714285714285714" fill="#8b00ff"/><circle cx="5" cy="35" r="4.0" fill="#ff0000"/><circle cx="5" cy="35" r="3.4285714285714284" fill="#ff7f00"/><circle cx="5" cy="35" r="2.857142857142857" fill="#ffff00"/><circle cx="5" cy="35" r="2.2857142857142856" fill="#00ff00"/><circle cx="5" cy="35" r="1.7142857142857142" fill="#00ffff"/><circle cx="5" cy="35" r="1.1428571428571428" fill="#0000ff"/><circle cx="5" cy="35" r="0.5714285714285714" fill="#8b00ff"/><circle cx="15" cy="5" r="4.0" fill="#ff0000"/><circle cx="15" cy="5" r="3.4285714285714284" fill="#ff7f00"/><circle cx="15" cy="5" r="2.857142857142857" fill="#ffff00"/><circle cx="15" cy="5" r="2.2857142857142856" fill="#00ff00"/><circle cx="15" cy="5" r="1.7142857142857142" fill="#00ffff"/><circle cx="15" cy="5" r="1.1428571428571428" fill="#0000ff"/><circle cx="15" cy="5" r="0.5714285714285714" fill="#8b00ff"/><circle cx="15" cy="15" r="4.0" fill="#ff0000"/><circle cx="15" cy="15" r="3.4285714285714284" fill="#ff7f00"/><circle cx="15" cy="15" r="2.857142857142857" fill="#ffff00"/><circle cx="15" cy="15" r="2.2857142857142856" fill="#00ff00"/><circle cx="15" cy="15" r="1.7142857142857142" fill="#00ffff"/><circle cx="15" cy="15" r="1.1428571428571428" fill="#0000ff"/><circle cx="15" cy="15" r="0.5714285714285714" fill="#8b00ff"/><circle cx="15" cy="25" r="4.0" fill="#ff0000"/><circle cx="15" cy="25" r="3.4285714285714284" fill="#ff7f00"/><circle cx="15" cy="25" r="2.857142857142857" fill="#ffff00"/><circle cx="15" cy="25" r="2.2857142857142856" fill="#00ff00"/><circle cx="15" cy="25" r="1.7142857142857142" fill="#00ffff"/><circle cx="15" cy="25" r="1.1428571428571428" fill="#0000ff"/><circle cx="15" cy="25" r="0.5714285714285714" fill="#8b00ff"/><circle cx="15" cy="35" r="4.0" fill="#ff0000"/><circle cx="15" cy="35" r="3.4285714285714284" fill="#ff7f00"/><circle cx="15" cy="35" r="2.857142857142857" fill="#ffff00"/><circle cx="15" cy="35" r="2.2857142857142856" fill="#00ff00"/><circle cx="15" cy="35" r="1.7142857142857142" fill="#00ffff"/><circle cx="15" cy="35" r="1.1428571428571428" fill="#0000ff"/><circle cx="15" cy="35" r="0.5714285714285714" fill="#8b00ff"/><circle cx="25" cy="5" r="4.0" fill="#ff0000"/><circle cx="25" cy="5" r="3.4285714285714284" fill="#ff7f00"/><circle cx="25" cy="5" r="2.857142857142857" fill="#ffff00"/><circle cx="25" cy="5" r="2.2857142857142856" fill="#00ff00"/><circle cx="25" cy="5" r="1.7142857142857142" fill="#00ffff"/><circle cx="25" cy="5" r="1.1428571428571428" fill="#0000ff"/><circle cx="25" cy="5" r="0.5714285714285714" fill="#8b00ff"/><circle cx="25" cy="15" r="4.0" fill="#ff0000"/><circle cx="25" cy="15" r="3.4285714285714284" fill="#ff7f00"/><circle cx="25" cy="15" r="2.857142857142857" fill="#ffff00"/><circle cx="25" cy="15" r="2.2857142857142856" fill="#00ff00"/><circle cx="25" cy="15" r="1.7142857142857142" fill="#00ffff"/><circle cx="25" cy="15" r="1.1428571428571428" fill="#0000ff"/><circle cx="25" cy="15" r="0.5714285714285714" fill="#8b00ff"/><circle cx="25" cy="25" r="4.0" fill="#ff0000"/><circle cx="25" cy="25" r="3.4285714285714284" fill="#ff7f00"/><circle cx="25" cy="25" r="2.857142857142857" fill="#ffff00"/><circle cx="25" cy="25" r="2.2857142857142856" fill="#00ff00"/><circle cx="25" cy="25" r="1.7142857142857142" fill="#00ffff"/><circle cx="25" cy="25" r="1.1428571428571428" fill="#0000ff"/><circle cx="25" cy="25" r="0.5714285714285714" fill="#8b00ff"/><circle cx="25" cy="35" r="4.0" fill="#ff0000"/><circle cx="25" cy="35" r="3.4285714285714284" fill="#ff7f00"/><circle cx="25" cy="35" r="2.857142857142857" fill="#ffff00"/><circle cx="25" cy="35" r="2.2857142857142856" fill="#00ff00"/><circle cx="25" cy="35" r="1.7142857142857142" fill="#00ffff"/><circle cx="25" cy="35" r="1.1428571428571428" fill="#0000ff"/><circle cx="25" cy="35" r="0.5714285714285714" fill="#8b00ff"/><circle cx="35" cy="5" r="4.0" fill="#ff0000"/><circle cx="35" cy="5" r="3.4285714285714284" fill="#ff7f00"/><circle cx="35" cy="5" r="2.857142857142857" fill="#ffff00"/><circle cx="35" cy="5" r="2.2857142857142856" fill="#00ff00"/><circle cx="35" cy="5" r="1.7142857142857142" fill="#00ffff"/><circle cx="35" cy="5" r="1.1428571428571428" fill="#0000ff"/><circle cx="35" cy="5" r="0.5714285714285714" fill="#8b00ff"/><circle cx="35" cy="15" r="4.0" fill="#ff0000"/><circle cx="35" cy="15" r="3.4285714285714284" fill="#ff7f00"/><circle cx="35" cy="15" r="2.857142857142857" fill="#ffff00"/><circle cx="35" cy="15" r="2.2857142857142856" fill="#00ff00"/><circle cx="35" cy="15" r="1.7142857142857142" fill="#00ffff"/><circle cx="35" cy="15" r="1.1428571428571428" fill="#0000ff"/><circle cx="35" cy="15" r="0.5714285714285714" fill="#8b00ff"/><circle cx="35" cy="25" r="4.0" fill="#ff0000"/><circle cx="35" cy="25" r="3.4285714285714284" fill="#ff7f00"/><circle cx="35" cy="25" r="2.857142857142857" fill="#ffff00"/><circle cx="35" cy="25" r="2.2857142857142856" fill="#00ff00"/><circle cx="35" cy="25" r="1.7142857142857142" fill="#00ffff"/><circle cx="35" cy="25" r="1.1428571428571428" fill="#0000ff"/><circle cx="35" cy="25" r="0.5714285714285714" fill="#8b00ff"/><circle cx="35" cy="35" r="4.0" fill="#ff0000"/><circle cx="35" cy="35" r="3.4285714285714284" fill="#ff7f00"/><circle cx="35" cy="35" r="2.857142857142857" fill="#ffff00"/><circle cx="35" cy="35" r="2.2857142857142856" fill="#00ff00"/><circle cx="35" cy="35" r="1.7142857142857142" fill="#00ffff"/><circle cx="35" cy="35" r="1.1428571428571428" fill="#0000ff"/><circle cx="35" cy="35" r="0.5714285714285714" fill="#8b00ff"/><circle cx="45" cy="5" r="4.0" fill="#ff0000"/><circle cx="45" cy="5" r="3.4285714285714284" fill="#ff7f00"/><circle cx="45" cy="5" r="2.857142857142857" fill="#ffff00"/><circle cx="45" cy="5" r="2.2857142857142856" fill="#00ff00"/><circle cx="45" cy="5" r="1.7142857142857142" fill="#00ffff"/><circle cx="45" cy="5" r="1.1428571428571428" fill="#0000ff"/><circle cx="45" cy="5" r="0.5714285714285714" fill="#8b00ff"/><circle cx="45" cy="15" r="4.0" fill="#ff0000"/><circle cx="45" cy="15" r="3.4285714285714284" fill="#ff7f00"/><circle cx="45" cy="15" r="2.857142857142857" fill="#ffff00"/><circle cx="45" cy="15" r="2.2857142857142856" fill="#00ff00"/><circle cx="45" cy="15" r="1.7142857142857142" fill="#00ffff"/><circle cx="45" cy="15" r="1.1428571428571428" fill="#0000ff"/><circle cx="45" cy="15" r="0.5714285714285714" fill="#8b00ff"/><circle cx="45" cy="25" r="4.0" fill="#ff0000"/><circle cx="45" cy="25" r="3.4285714285714284" fill="#ff7f00"/><circle cx="45" cy="25" r="2.857142857142857" fill="#ffff00"/><circle cx="45" cy="25" r="2.2857142857142856" fill="#00ff00"/><circle cx="45" cy="25" r="1.7142857142857142" fill="#00ffff"/><circle cx="45" cy="25" r="1.1428571428571428" fill="#0000ff"/><circle cx="45" cy="25" r="0.5714285714285714" fill="#8b00ff"/><circle cx="45" cy="35" r="4.0" fill="#ff0000"/><circle cx="45" cy="35" r="3.4285714285714284" fill="#ff7f00"/><circle cx="45" cy="35" r="2.857142857142857" fill="#ffff00"/><circle cx="45" cy="35" r="2.2857142857142856" fill="#00ff00"/><circle cx="45" cy="35" r="1.7142857142857142" fill="#00ffff"/><circle cx="45" cy="35" r="1.1428571428571428" fill="#0000ff"/><circle cx="45" cy="35" r="0.5714285714285714" fill="#8b00ff"/><circle cx="55" cy="5" r="4.0" fill="#ff0000"/><circle cx="55" cy="5" r="3.4285714285714284" fill="#ff7f00"/><circle cx="55" cy="5" r="2.857142857142857" fill="#ffff00"/><circle cx="55" cy="5" r="2.2857142857142856" fill="#00ff00"/><circle cx="55" cy="5" r="1.7142857142857142" fill="#00ffff"/><circle cx="55" cy="5" r="1.1428571428571428" fill="#0000ff"/><circle cx="55" cy="5" r="0.5714285714285714" fill="#8b00ff"/><circle cx="55" cy="15" r="4.0" fill="#ff0000"/><circle cx="55" cy="15" r="3.4285714285714284" fill="#ff7f00"/><circle cx="55" cy="15" r="2.857142857142857" fill="#ffff00"/><circle cx="55" cy="15" r="2.2857142857142856" fill="#00ff00"/><circle cx="55" cy="15" r="1.7142857142857142" fill="#00ffff"/><circle cx="55" cy="15" r="1.1428571428571428" fill="#0000ff"/><circle cx="55" cy="15" r="0.5714285714285714" fill="#8b00ff"/><circle cx="55" cy="25" r="4.0" fill="#ff0000"/><circle cx="55" cy="25" r="3.4285714285714284" fill="#ff7f00"/><circle cx="55" cy="25" r="2.857142857142857" fill="#ffff00"/><circle cx="55" cy="25" r="2.2857142857142856" fill="#00ff00"/><circle cx="55" cy="25" r="1.7142857142857142" fill="#00ffff"/><circle cx="55" cy="25" r="1.1428571428571428" fill="#0000ff"/><circle cx="55" cy="25" r="0.5714285714285714" fill="#8b00ff"/><circle cx="55" cy="35" r="4.0" fill="#ff0000"/><circle cx="55" cy="35" r="3.4285714285714284" fill="#ff7f00"/><circle cx="55" cy="35" r="2.857142857142857" fill="#ffff00"/><circle cx="55" cy="35" r="2.2857142857142856" fill="#00ff00"/><circle cx="55" cy="35" r="1.7142857142857142" fill="#00ffff"/><circle cx="55" cy="35" r="1.1428571428571428" fill="#0000ff"/><circle cx="55" cy="35" r="0.5714285714285714" fill="#8b00ff"/></svg>
